<?xml version="1.0" standalone="no"?>
<!DOCTYPE svg PUBLIC "-//W3C//DTD SVG 20010904//EN"
 "http://www.w3.org/TR/2001/REC-SVG-20010904/DTD/svg10.dtd">
<svg version="1.0" xmlns="http://www.w3.org/2000/svg"
 width="311.000000pt" height="311.000000pt" viewBox="0 0 311.000000 311.000000"
 preserveAspectRatio="xMidYMid meet">
<metadata>
Created by potrace 1.11, written by Peter Selinger 2001-2013
</metadata>
<g transform="translate(0.000000,311.000000) scale(0.100000,-0.100000)"
fill="#000000" stroke="none">
<path d="M1477 2845 c-8 -8 -17 -11 -21 -8 -10 10 -57 10 -63 -1 -3 -5 -1 -6
5 -2 6 3 13 2 16 -3 4 -5 -2 -8 -11 -6 -10 2 -18 4 -18 5 0 1 -8 3 -17 5 -10
2 -18 -1 -18 -7 0 -7 -5 -6 -14 1 -11 9 -16 9 -22 0 -5 -8 -3 -10 7 -4 8 5 11
5 7 1 -3 -4 -10 -8 -15 -8 -4 0 -18 -4 -31 -9 -15 -6 -21 -5 -17 1 7 11 -8 14
-19 3 -3 -4 -12 -8 -19 -9 -30 -5 -43 -10 -49 -19 -5 -6 -8 -5 -8 3 0 7 -5 10
-10 7 -6 -4 -8 -10 -5 -15 3 -5 -3 -7 -15 -5 -11 2 -22 -1 -26 -7 -4 -6 -10
-5 -15 3 -6 10 -9 10 -9 2 0 -7 -10 -17 -21 -24 -16 -8 -20 -8 -14 1 5 8 1 8
-13 -1 -12 -7 -18 -17 -16 -21 3 -4 1 -8 -5 -8 -5 0 -11 6 -14 13 -3 7 -9 2
-15 -13 -6 -14 -11 -19 -11 -11 -1 10 -4 11 -14 2 -8 -6 -18 -7 -22 -3 -5 4
-5 1 -1 -5 5 -9 -1 -13 -19 -13 -15 0 -24 -4 -20 -10 3 -5 0 -10 -8 -10 -8 0
-20 -7 -27 -15 -7 -8 -16 -12 -21 -9 -5 3 -12 -2 -15 -10 -3 -9 -15 -16 -26
-16 -10 0 -16 -4 -13 -10 3 -5 0 -10 -7 -10 -7 0 -30 -16 -51 -35 -21 -19 -40
-35 -43 -35 -6 0 -55 -44 -92 -84 -15 -16 -42 -44 -60 -63 -17 -18 -32 -37
-32 -41 0 -4 -9 -13 -20 -20 -11 -7 -20 -19 -20 -27 0 -7 -9 -20 -20 -28 -11
-8 -17 -17 -13 -20 3 -4 1 -7 -5 -7 -7 0 -12 -5 -12 -11 0 -6 -7 -17 -15 -26
-8 -8 -13 -19 -10 -24 4 -5 -2 -9 -12 -9 -12 0 -14 -3 -6 -8 13 -8 2 -36 -12
-30 -5 1 -9 -6 -11 -17 -2 -11 -10 -25 -18 -31 -9 -6 -13 -14 -9 -17 3 -4 1
-13 -5 -20 -7 -8 -9 -17 -5 -20 3 -4 1 -7 -6 -7 -7 0 -10 -4 -6 -9 3 -5 0 -13
-6 -16 -5 -4 -8 -13 -5 -21 3 -8 1 -14 -5 -14 -6 0 -8 -7 -5 -15 3 -9 -1 -18
-9 -21 -9 -4 -13 -16 -10 -35 2 -16 -1 -27 -6 -24 -9 6 -11 -5 -12 -52 -1 -13
-5 -23 -10 -23 -5 0 -7 -9 -4 -20 3 -11 2 -20 -2 -20 -4 0 -7 -17 -7 -37 0
-28 -4 -37 -15 -35 -11 3 -12 1 -1 -9 14 -15 17 -33 3 -25 -8 5 -6 -47 4 -72
3 -7 1 -11 -4 -8 -4 3 -8 -15 -7 -39 0 -25 4 -45 9 -45 4 0 5 -5 2 -11 -11
-17 -13 -59 -3 -65 4 -3 6 -10 3 -15 -4 -5 0 -9 7 -9 9 0 9 -3 -2 -10 -12 -8
-12 -10 -1 -10 8 0 11 -3 8 -6 -3 -4 -2 -16 4 -27 8 -14 8 -18 0 -13 -6 4 -11
2 -11 -3 0 -6 4 -11 10 -11 5 0 6 -7 3 -17 -5 -12 -3 -14 8 -8 11 6 11 5 2 -5
-9 -10 -8 -18 5 -38 14 -21 14 -24 2 -17 -12 7 -13 6 -3 -7 7 -8 10 -18 6 -21
-3 -4 -1 -7 6 -7 7 0 11 -8 9 -18 -2 -9 3 -23 12 -30 8 -8 9 -11 3 -7 -7 3
-13 1 -13 -4 0 -6 5 -11 10 -11 6 0 10 -11 10 -25 0 -14 5 -25 11 -25 6 0 9
-9 6 -20 -3 -11 0 -18 7 -17 6 1 10 -4 8 -10 -1 -7 2 -13 8 -13 5 0 7 -7 4
-15 -4 -8 1 -17 9 -21 9 -3 14 -14 12 -25 -2 -12 2 -19 11 -19 8 0 12 -4 9
-10 -3 -5 -1 -10 4 -10 6 0 11 -6 11 -13 0 -7 9 -23 20 -35 11 -12 21 -25 22
-29 2 -20 22 -52 28 -48 4 2 13 -7 20 -20 7 -14 17 -25 22 -25 4 0 8 -7 8 -15
0 -8 5 -15 11 -15 5 0 7 -5 4 -10 -4 -6 -1 -9 7 -8 7 2 12 -3 10 -10 -1 -6 1
-11 5 -11 19 3 33 -2 33 -12 0 -5 -6 -7 -13 -3 -8 5 -8 2 2 -9 7 -9 19 -17 25
-17 12 0 42 -40 38 -53 -1 -4 4 -7 11 -5 7 2 24 -8 39 -22 45 -44 64 -56 77
-52 8 3 11 0 7 -7 -4 -6 -2 -11 4 -11 6 0 8 -5 5 -10 -4 -6 -3 -10 2 -9 14 4
63 -24 57 -32 -3 -5 3 -6 12 -2 12 5 15 3 9 -6 -5 -10 -2 -11 14 -6 15 4 21 3
19 -7 -2 -7 7 -14 20 -16 12 -2 22 -8 22 -13 0 -5 6 -9 14 -9 7 0 19 -6 26
-14 6 -8 18 -12 26 -9 9 3 14 -1 14 -13 0 -11 4 -15 8 -9 10 13 35 18 27 5 -4
-6 7 -13 24 -16 17 -4 31 -11 31 -16 0 -5 5 -6 10 -3 6 4 24 0 40 -9 17 -8 27
-10 24 -4 -4 6 3 4 15 -5 13 -8 30 -13 39 -10 11 5 13 3 7 -8 -7 -12 -6 -12 7
-1 13 10 19 10 32 -3 9 -9 16 -11 16 -5 0 7 6 8 18 2 9 -5 23 -7 30 -5 7 3 12
-3 12 -14 1 -17 1 -17 11 0 8 14 14 15 24 7 19 -16 55 -21 55 -7 0 8 3 8 8 2
10 -15 233 -15 225 0 -4 6 -2 6 6 -1 14 -13 73 -6 65 8 -4 6 1 6 13 -1 11 -5
24 -6 29 -1 5 4 26 10 47 13 20 3 43 10 50 16 10 8 17 7 25 -1 9 -9 12 -9 12
0 0 6 7 9 17 5 12 -5 14 -3 8 7 -6 10 -2 12 18 8 16 -3 24 -1 20 5 -4 6 2 8
15 5 12 -4 20 -2 16 3 -4 8 17 14 39 10 4 0 7 4 7 10 0 5 5 7 10 4 6 -3 10 -1
10 4 0 6 5 11 11 11 5 0 7 -6 3 -13 -9 -14 24 10 44 33 8 8 11 10 8 4 -3 -6 9
-4 28 5 19 9 31 20 28 25 -3 5 2 7 11 3 9 -3 17 -2 19 3 2 5 10 10 18 12 8 2
22 11 31 20 9 10 21 18 26 18 5 0 20 10 33 23 14 12 27 22 30 22 3 0 15 10 28
23 12 12 27 20 33 17 5 -4 8 -2 7 3 -4 11 89 102 96 94 3 -3 6 0 6 6 0 7 11
22 24 33 13 12 27 32 30 45 4 13 11 24 17 24 7 0 6 -6 -2 -17 -13 -16 -12 -17
4 -4 9 7 17 19 17 27 0 7 7 19 15 27 8 8 16 21 17 28 2 7 14 24 28 37 14 13
19 20 11 17 -9 -5 -8 1 4 19 10 14 22 26 27 26 6 0 4 8 -3 17 -10 11 -10 14
-1 9 7 -4 12 -2 12 4 0 6 4 8 10 5 6 -3 7 1 4 9 -3 9 -1 16 6 16 6 0 8 5 5 10
-3 6 -1 10 4 10 6 0 11 5 11 11 0 5 -6 7 -12 4 -7 -4 -5 0 4 8 10 8 15 17 11
20 -3 4 -1 7 5 7 7 0 11 3 11 8 -1 4 0 10 1 15 1 4 3 13 4 20 1 6 8 11 16 9
10 -2 11 0 2 11 -9 11 -8 19 8 37 15 18 17 27 9 42 -8 15 -8 19 0 14 7 -4 11
1 11 13 0 12 6 21 13 21 9 0 9 2 -1 8 -16 10 -4 45 12 35 6 -4 5 1 -3 10 -8
11 -9 17 -3 17 7 0 9 7 5 17 -5 12 -3 14 8 8 12 -8 12 -6 0 8 -7 10 -9 17 -3
17 11 0 11 18 -1 37 -4 6 -2 15 4 19 8 5 9 3 4 -6 -5 -9 -4 -11 4 -6 9 6 9 11
1 21 -8 10 -7 14 7 18 16 4 16 5 -1 6 -20 1 -20 1 0 17 10 8 14 13 8 10 -7 -3
-15 1 -18 10 -3 8 -2 12 4 9 12 -7 12 -6 14 57 1 25 -2 44 -6 42 -4 -3 -8 7
-8 21 0 18 4 24 13 19 13 -8 -10 24 -28 39 -6 5 1 6 15 3 22 -4 23 -4 8 8 -16
12 -16 14 0 31 14 16 14 17 1 7 -13 -10 -18 -10 -22 2 -3 7 0 19 6 26 9 10 9
11 0 6 -7 -4 -13 -3 -13 1 0 5 6 15 13 22 10 11 9 12 -2 6 -10 -6 -13 -4 -9 7
4 8 2 21 -3 29 -7 12 -9 12 -9 0 0 -8 -3 -11 -6 -8 -4 4 -1 13 5 21 9 10 9 16
1 21 -8 5 -8 11 -1 19 8 9 6 18 -7 32 -9 10 -18 33 -20 49 -2 17 -8 32 -13 33
-5 2 -9 8 -9 13 0 6 5 7 11 4 6 -4 5 2 -3 14 -7 12 -16 21 -20 21 -5 0 -8 5
-8 11 0 5 6 7 13 4 6 -4 3 2 -9 12 -11 10 -19 23 -17 30 2 6 -3 18 -12 27 -9
8 -18 26 -20 38 -3 13 -15 32 -27 42 -21 17 -21 19 -3 13 20 -7 20 -7 1 8 -11
8 -17 15 -13 15 5 0 2 6 -5 14 -7 8 -15 12 -18 11 -3 -2 -7 5 -7 17 -1 11 -11
28 -22 38 -12 9 -21 21 -21 25 0 13 -48 64 -54 58 -3 -4 -6 -1 -6 6 0 17 -26
42 -35 33 -4 -4 -6 -2 -5 3 5 24 -1 37 -15 31 -8 -3 -14 -2 -14 2 3 20 -2 32
-15 32 -8 0 -17 7 -20 16 -3 8 -11 12 -16 9 -6 -4 -9 -3 -8 2 2 4 0 9 -5 11
-11 3 -44 38 -50 53 -4 11 -6 11 -6 1 -1 -8 -10 -4 -26 10 -42 39 -53 47 -59
41 -3 -4 -6 -1 -6 6 0 7 -4 9 -10 6 -5 -3 -10 1 -10 9 0 9 -6 16 -13 16 -19 0
-67 24 -67 33 0 5 -4 6 -9 2 -5 -3 -16 2 -24 10 -9 8 -19 15 -22 15 -4 0 -29
11 -57 25 -27 13 -46 20 -43 15 3 -6 -1 -7 -9 -4 -9 3 -16 11 -16 16 0 6 -9 8
-19 5 -12 -3 -22 1 -25 10 -5 12 -9 13 -21 3 -10 -9 -15 -9 -15 -1 0 6 -3 10
-7 10 -22 -4 -33 2 -27 14 5 8 2 8 -9 -2 -9 -7 -17 -9 -17 -4 0 5 -19 9 -41 9
-26 -1 -43 4 -47 12 -4 11 -6 11 -13 0 -7 -11 -11 -10 -18 2 -6 8 -13 11 -16
8 -4 -4 -18 -3 -32 3 -13 5 -22 5 -19 1 2 -4 -9 -8 -25 -7 -16 0 -29 4 -29 9
0 5 -7 3 -15 -4 -13 -11 -14 -10 -9 3 4 13 0 15 -25 12 -17 -2 -38 -8 -48 -13
-21 -11 -46 -5 -37 9 8 14 -3 11 -19 -6z m113 -5 c0 -5 -2 -10 -4 -10 -3 0 -8
5 -11 10 -3 6 -1 10 4 10 6 0 11 -4 11 -10z m1310 -1350 c0 -5 -2 -10 -4 -10
-3 0 -8 5 -11 10 -3 6 -1 10 4 10 6 0 11 -4 11 -10z m-2679 -73 c-10 -9 -11
-8 -5 6 3 10 9 15 12 12 3 -3 0 -11 -7 -18z"/>
</g>
</svg>
